<?xml version="1.0" encoding="UTF-8"?> <svg xmlns="http://www.w3.org/2000/svg" viewBox="0 0 423.4 278.11"><defs><style>.cls-1,.cls-2{fill:#fff;}.cls-2{fill-rule:evenodd;}</style></defs><g id="Calque_2" data-name="Calque 2"><g id="Слой_1" data-name="Слой 1"><path class="cls-1" d="M122.26,221.48l6.81-1.62v30.67c0,5.33,1,7.5,2.55,7.5,1.12,0,2.55-1.2,4.2-3.22.3-.38.52,0,.52,0l.15.52c-2.17,3.08-5,4.43-7.5,4.43a6.59,6.59,0,0,1-6.52-5.78,14.77,14.77,0,0,1-11.63,6.08c-17.17,0-17.77-12.08-17.77-22.43v-2.25q0-6.76,0-13.53l6.74-2V236c.15,7.8-.82,22.13,11.77,22.13a12.71,12.71,0,0,0,10.73-5.63Z"></path><path class="cls-1" d="M175.87,248.88c0-14.32-30.15-9.75-30.15-19.65,0-4.8,5.7-6.67,11.4-6.67,6.3,0,6.9,6.22,10,9.52a4.11,4.11,0,0,0,3,1.35,3.7,3.7,0,0,0,3.9-3.45,4.31,4.31,0,0,0-.68-2.17c-2.7-4.35-8.85-6.75-14.62-6.75-6.75,0-17,2-17,10.57,0,15.23,29.85,10.2,29.85,19.5,0,3.2-2.24,5.4-5.6,6.61a21.94,21.94,0,0,1-3,.67,21.42,21.42,0,0,1-3.24.21c-6.3,0-6.9-6.22-10.05-9.52a4.11,4.11,0,0,0-3-1.35,3.7,3.7,0,0,0-3.9,3.45,4.31,4.31,0,0,0,.68,2.17c1.77,2.95,7.25,6.42,14.62,6.75a22.66,22.66,0,0,0,8.54-1.19c2.35-.84,6.63-2.36,8.38-6.31A9.42,9.42,0,0,0,175.87,248.88Z"></path><path class="cls-1" d="M201,221.21c8,0,15.75,6.15,16.95,14.4H188.77c0,10.42,6.75,23.17,17.55,23.17,8.1,0,11.55-7.2,12-10l1.05.53c-1.88,6.67-6.45,11.17-16.58,11.17-14,0-20.77-9.6-20.77-19.72C182,227.36,191.69,221.21,201,221.21Zm-12.15,13.27h22c-1-3.6-4.8-11.92-11.48-11.92C192.44,222.56,189.22,228,188.84,234.48Z"></path><path class="cls-1" d="M243.07,221.21c8,0,15.75,6.15,16.95,14.4H230.84c0,10.42,6.75,23.17,17.55,23.17,8.1,0,11.55-7.2,12-10l1.05.53c-1.87,6.67-6.45,11.17-16.57,11.17-14,0-20.78-9.6-20.78-19.72C224.09,227.36,233.77,221.21,243.07,221.21Zm-12.15,13.27h22c-1-3.6-4.8-11.92-11.47-11.92C234.52,222.56,231.29,228,230.92,234.48Z"></path><polygon class="cls-1" points="204.75 214.53 199.83 214.53 207.92 201.34 213.99 201.34 204.75 214.53"></polygon><path class="cls-1" d="M308.49,253c3.78,4.73,10.08,7.13,18.71,7.13s15-2.41,19-7.16c4.09-4.95,6.17-11.25,6.17-18.72V195.44c0-3.32,1.54-6.15,4.61-8.44H343.54c3.17,3,4.77,7.52,4.77,13.59v32.47c0,14.84-6.22,22.36-18.48,22.36-12.84,0-19.36-7.63-19.36-22.67V200.59c0-6.07,1.67-10.62,5-13.59H298.24c2.95,2.33,4.45,5.16,4.45,8.44v39.31C302.69,241.89,304.64,248,308.49,253Z"></path><path class="cls-1" d="M402.39,238.32c-.23-14.07-6.05-20.92-17.78-20.92-4.67,0-8.33,1.29-10.88,3.84L372,223v-5.51c-2.41.29-4.7.52-6.83.67-1.61.12-3.29.19-5,.24,2.88,2.16,4.4,4.43,4.61,6.87V271a9.31,9.31,0,0,1-3.26,7.1h14.06A9,9,0,0,1,372,271v-14.4l1.49.84a19.73,19.73,0,0,0,9.75,2.33C396.13,259.67,402.39,252.65,402.39,238.32ZM372.05,248.4l0-.22V226.91l.08-.18c1.95-4.78,5.35-7.2,10.08-7.2,8.17,0,12.41,6.33,12.59,18.82,0,12.56-4.14,19-12.3,19.12C376.84,257.21,373.35,254.16,372.05,248.4Z"></path><path class="cls-1" d="M86.09,259.21a10.06,10.06,0,0,1-3.63-2.57,10.8,10.8,0,0,1-2.56-7.59V194.9a8.68,8.68,0,0,1,1-4.07v0a12.06,12.06,0,0,1,3-3.64v-.47H70.45A594.31,594.31,0,0,1,44,245.11c-8.8-19.63-18.14-39-27.7-58.42H1.7v.45a11.7,11.7,0,0,1,2.16,2,14.47,14.47,0,0,1,3,8.11c1.38,14.55-.1,47.46-.11,49.81,0,0,0,1.64-.3,3.79a15.08,15.08,0,0,1-.81,4.28c-.3.66-1.46,2.79-5.69,3.85v.9H16.21V259c-1.6-.46-4.32-1.55-5.39-4a13.34,13.34,0,0,1-.73-4.28,33.16,33.16,0,0,1-.11-3.64q.09-25.76.19-51.49,7.49,15.07,14.89,31.12,8,17.38,15.09,34.12,7.65-16.74,15.53-33.62Q63,211.43,70.45,195.86v53.36a10.67,10.67,0,0,1-2.68,7.26,10.11,10.11,0,0,1-3.62,2.5v1.11l21.92.06Z"></path><polygon class="cls-1" points="418.02 217.39 413.27 218.7 417.56 203.83 423.4 202.21 418.02 217.39"></polygon><path class="cls-1" d="M239.82,0a5.89,5.89,0,0,0,2.44,4.74,5.92,5.92,0,0,0,.93.53,6.33,6.33,0,0,0,2.79.52h39.84a6.33,6.33,0,0,0,2.79-.52,6.49,6.49,0,0,0,.94-.53A5.9,5.9,0,0,0,292,0Z"></path><rect class="cls-1" x="244.75" y="7.54" width="44.01" height="2.58" rx="0.51"></rect><path class="cls-1" d="M279.9,29.2a16.8,16.8,0,0,1,2.21-2.62,13.86,13.86,0,0,1,2-1.54V23.63h-23l-6.65,13.5V123.2c0,6-1.16,11.08-3.47,15.26s-5.23,6.21-8.51,6.21v1.42h15.42q-.11-53.39-.2-106.79a3.59,3.59,0,0,1,.42-1.39,1.34,1.34,0,0,1,1.26-.72,1.47,1.47,0,0,1,1.17.92,3.68,3.68,0,0,1,.22,1.33c0,1.46.09,45.84.18,106.65h3.52q-.1-53.39-.2-106.79a3.27,3.27,0,0,1,.45-1.39,1.29,1.29,0,0,1,1.23-.72,1.46,1.46,0,0,1,1.17.92,3.11,3.11,0,0,1,.22,1.33c0,1.46.09,45.84.21,106.65H271q-.11-53.39-.2-106.79a3.27,3.27,0,0,1,.45-1.39,1.29,1.29,0,0,1,1.23-.72,1.46,1.46,0,0,1,1.17.92,3.11,3.11,0,0,1,.22,1.33c0,1.46.09,45.84.21,106.65h15.25v-1.42c-3.27,0-6.12-2-8.43-6.21s-3.55-9.22-3.55-15.26V45.81c0-2.33,0-4.65.05-7a21,21,0,0,1,.7-5.47A14.3,14.3,0,0,1,279.9,29.2Z"></path><path class="cls-1" d="M148.37,138.46a34.81,34.81,0,0,1-4.09-13v.88A36.38,36.38,0,0,1,140,138.46c-2.4,4.17-5.25,6.21-8.53,6.21v1.42H156.8v-1.42C153.53,144.67,150.68,142.63,148.37,138.46Z"></path><path class="cls-1" d="M216.38,115.27,166,9H131.42V10.6c4,0,7.38,2.68,10.05,7.89l60.46,127.6h1.58l13.65-29Z"></path><path class="cls-2" d="M280.89,21.64V20.38h1.79a9.53,9.53,0,0,0-1.79-5.9V12.57c2.24,1.95,3.25,4.48,3.18,9.07Z"></path><path class="cls-2" d="M280.89,12.57v1.91a9.53,9.53,0,0,0-1.79,5.9h1.79v1.26h-3.18c-.07-4.59.94-7.12,3.18-9.07Z"></path><path class="cls-2" d="M273.63,21.64V20.38h1.79a9.53,9.53,0,0,0-1.79-5.9V12.57c2.24,1.95,3.25,4.48,3.18,9.07Z"></path><path class="cls-2" d="M266.37,20.38h1.79a9.53,9.53,0,0,0-1.79-5.9V12.57c2.24,1.95,3.25,4.48,3.18,9.07h-3.18V20.38Z"></path><path class="cls-2" d="M273.63,12.57v1.91h0a9.53,9.53,0,0,0-1.79,5.9h1.79v1.26h-3.18c-.07-4.59.94-7.12,3.18-9.07Z"></path><path class="cls-2" d="M266.37,14.48a9.53,9.53,0,0,0-1.79,5.9h1.79v1.26h-3.18c-.07-4.59.94-7.12,3.18-9.07v1.91Z"></path><path class="cls-2" d="M259.11,21.64V20.38h1.79a9.53,9.53,0,0,0-1.79-5.9h0V12.57h0c2.24,1.95,3.25,4.48,3.18,9.07Z"></path><path class="cls-2" d="M259.11,12.57v1.91a9.53,9.53,0,0,0-1.79,5.9h1.79v1.26h-3.18c-.07-4.59.94-7.12,3.18-9.07Z"></path><path class="cls-2" d="M251.85,21.64V20.38h1.79a9.53,9.53,0,0,0-1.79-5.9V12.57c2.24,1.95,3.25,4.48,3.18,9.07Z"></path><path class="cls-2" d="M251.85,12.57v1.91a9.53,9.53,0,0,0-1.79,5.9h1.79v1.26h-3.18C248.6,17.05,249.61,14.52,251.85,12.57Z"></path><path class="cls-2" d="M258.64,11.9h-6.32l.12.11a9.38,9.38,0,0,1,3,5.06,9.38,9.38,0,0,1,3-5.06Z"></path><path class="cls-2" d="M265.9,11.9h-6.32l.12.11a9.38,9.38,0,0,1,3,5.06,9.38,9.38,0,0,1,3-5.06Z"></path><path class="cls-2" d="M273.16,11.9h-6.32L267,12a9.38,9.38,0,0,1,3,5.06A9.38,9.38,0,0,1,273,12Z"></path><path class="cls-2" d="M280.42,11.9H274.1l.12.11a9.38,9.38,0,0,1,3,5.06,9.38,9.38,0,0,1,3-5.06Z"></path><path class="cls-2" d="M287.72,11.9H281.4l.12.11a9.32,9.32,0,0,1,3,5.06,9.38,9.38,0,0,1,3-5.06Z"></path><path class="cls-2" d="M251.45,11.9h-6.32l.12.11a9.38,9.38,0,0,1,3,5.06,9.38,9.38,0,0,1,3-5.06Z"></path></g></g></svg> 